<svg width="800" height="800" viewBox="0 0 800 800" fill="none" xmlns="http://www.w3.org/2000/svg">
<rect width="800" height="800" rx="50" fill="white"/>
<path d="M370.535 421.532H87.6267C80.1019 421.532 74 427.634 74 435.159V728.41C74 735.935 80.1019 742.037 87.6267 742.037H370.535C378.06 742.037 384.162 735.935 384.162 728.41V435.159C384.162 427.633 378.06 421.532 370.535 421.532ZM101.253 714.783V448.786H356.907V714.782L101.253 714.783Z" fill="black"/>
<path d="M370.535 57.9632H87.6267C80.1019 57.9632 74 64.065 74 71.5898V364.841C74 372.366 80.1019 378.468 87.6267 378.468H370.535C378.06 378.468 384.162 372.366 384.162 364.841V71.5912C384.162 64.065 378.06 57.9632 370.535 57.9632ZM101.253 351.214V85.2179H356.907V351.214H101.253Z" fill="black"/>
<path d="M712.372 57.9632H441.343C433.818 57.9632 427.716 64.065 427.716 71.5898V728.41C427.716 735.935 433.818 742.037 441.343 742.037H712.373C719.898 742.037 726 735.935 726 728.41V71.5898C725.999 64.065 719.898 57.9632 712.372 57.9632ZM698.747 714.783H698.745H454.969V85.2165H698.747V714.783Z" fill="black"/>
<path d="M632.518 386.373H590.619V344.474C590.619 336.949 584.517 330.847 576.992 330.847C569.467 330.847 563.365 336.949 563.365 344.474V386.373H521.466C513.941 386.373 507.839 392.475 507.839 400C507.839 407.525 513.94 413.627 521.466 413.627H563.365V455.526C563.365 463.051 569.467 469.153 576.992 469.153C584.517 469.153 590.619 463.051 590.619 455.526V413.627H632.517C640.042 413.627 646.144 407.525 646.144 400C646.144 392.475 640.043 386.373 632.518 386.373Z" fill="black"/>
<path d="M285.475 566.836H174.421C166.897 566.836 160.795 572.938 160.795 580.463C160.795 587.988 166.895 594.09 174.421 594.09H285.475C293 594.09 299.102 587.988 299.102 580.463C299.102 572.938 293 566.836 285.475 566.836Z" fill="black"/>
<path d="M285.475 233.674H174.421C166.897 233.674 160.795 239.776 160.795 247.301C160.795 254.825 166.895 260.927 174.421 260.927H285.475C293 260.927 299.102 254.825 299.102 247.301C299.103 239.776 293 233.674 285.475 233.674Z" fill="black"/>
<path d="M285.475 174.677H174.421C166.897 174.677 160.795 180.778 160.795 188.303C160.795 195.828 166.895 201.93 174.421 201.93H285.475C293 201.93 299.102 195.828 299.102 188.303C299.103 180.778 293 174.677 285.475 174.677Z" fill="black"/>
</svg>
